<svg xmlns="http://www.w3.org/2000/svg" viewBox="0 0 100 100">
  <!-- Background Circle -->
  <circle cx="50" cy="50" r="48" fill="#2A4494" />
  
  <!-- Neural Network Nodes (representing ML/AI) -->
  <circle cx="35" cy="30" r="4" fill="white" opacity="0.9"/>
  <circle cx="65" cy="30" r="4" fill="white" opacity="0.9"/>
  <circle cx="50" cy="50" r="4" fill="white" opacity="0.9"/>
  <circle cx="35" cy="70" r="4" fill="white" opacity="0.9"/>
  <circle cx="65" cy="70" r="4" fill="white" opacity="0.9"/>
  
  <!-- Neural Network Connections -->
  <line x1="35" y1="30" x2="65" y2="30" stroke="white" stroke-width="2" opacity="0.5"/>
  <line x1="35" y1="30" x2="50" y2="50" stroke="white" stroke-width="2" opacity="0.5"/>
  <line x1="65" y1="30" x2="50" y2="50" stroke="white" stroke-width="2" opacity="0.5"/>
  <line x1="35" y1="70" x2="50" y2="50" stroke="white" stroke-width="2" opacity="0.5"/>
  <line x1="65" y1="70" x2="50" y2="50" stroke="white" stroke-width="2" opacity="0.5"/>
  <line x1="35" y1="70" x2="65" y2="70" stroke="white" stroke-width="2" opacity="0.5"/>
  
  <!-- Circuit Board Traces (representing hardware/engineering) -->
  <path d="M 20 85 L 30 85 L 30 75 L 40 75 L 40 85 L 80 85" 
        fill="none" stroke="white" stroke-width="2" opacity="0.7"/>
  <path d="M 15 15 L 25 15 L 25 25 L 35 25" 
        fill="none" stroke="white" stroke-width="2" opacity="0.7"/>
  <path d="M 75 15 L 85 15 L 85 25" 
        fill="none" stroke="white" stroke-width="2" opacity="0.7"/>

  <!-- Waveform (representing signal processing) -->
  <path d="M 15 50 Q 25 30, 35 50 T 55 50 T 75 50 T 85 50" 
        fill="none" stroke="white" stroke-width="2" opacity="0.7"/>
</svg>
